# xmcd CD database file
#
# Track frame offsets:
#	150
#	14025
#	37013
#	50242
#	63142
#	78836
#	92805
#	115699
#	129893
#	148681
#	162181
#	181813
#	198370
#	209208
#	229646
#	239321
#	249109
#	262281
#	275106
#	286881
#	296594
#	311107
#	324045
#
# Disc length: 4583 seconds
#
# Revision: 1
# Processed by: cddbd v1.5.2PL0 Copyright (c) Steve Scherf et al.
# Submitted via: CDex 1.83
#
DISCID=5511e517
DTITLE=Chet Baker - It Could Happen To You
DYEAR=1958
DGENRE=Jazz
TTITLE0=Do It The Hard Way
TTITLE1=I'm Old-Fashioned
TTITLE2=You're Driving Me Crazy
TTITLE3=It Could Happen To You
TTITLE4=My Heart Stood Still
TTITLE5=The More I See You
TTITLE6=Everything Happens To Me
TTITLE7=Dancing On The Ceiling
TTITLE8=How Long Has This Been Going On?
TTITLE9=Old Devil Moon
TTITLE10=While My Lady Sleeps
TTITLE11=You Make Me Feel So Young
TTITLE12=The Night We Called it A Day
TTITLE13=Little Girl Blue
TTITLE14=Embraceable You
TTITLE15=They All Laughed
TTITLE16=There's A Lull In My Life
TTITLE17=While My Lady Sleeps
TTITLE18=Forgetful
TTITLE19=Come Rain Or Come Shine
TTITLE20=Every Time We Say Goodbye
TTITLE21=I'll Remember April
TTITLE22=Arrivederci
EXTD=YEAR: 1958
EXTT0=
EXTT1=
EXTT2=
EXTT3=
EXTT4=
EXTT5=
EXTT6=
EXTT7=
EXTT8=
EXTT9=
EXTT10=
EXTT11=
EXTT12=
EXTT13=
EXTT14=
EXTT15=
EXTT16=
EXTT17=
EXTT18=
EXTT19=
EXTT20=
EXTT21=
EXTT22=
PLAYORDER=
